<?xml version="1.0" encoding="UTF-8" standalone="no"?>
<!DOCTYPE svg PUBLIC "-//W3C//DTD SVG 1.1//EN"
 "http://www.w3.org/Graphics/SVG/1.1/DTD/svg11.dtd">
<!-- Generated by graphviz version 8.0.5 (0)
 -->
<!-- Title: Roadmap Pages: 1 -->
<svg width="864pt" height="230pt"
 viewBox="0.00 0.00 864.00 230.05" xmlns="http://www.w3.org/2000/svg" xmlns:xlink="http://www.w3.org/1999/xlink">
<g id="graph0" class="graph" transform="scale(0.864865 0.864865) rotate(0) translate(4 262)">
<title>Roadmap</title>
<polygon fill="#0f0f0f" stroke="none" points="-4,4 -4,-262 995,-262 995,4 -4,4"/>
<text text-anchor="middle" x="495.5" y="-240.7" font-family="Circular Std " font-size="14.00" fill="#dedede">Roadmap</text>
<g id="clust1" class="cluster">
<title>cluster_Career</title>
</g>
<!-- 9c76d789&#45;36ff&#45;448a&#45;86bc&#45;da2b7ed272e2 -->
<g id="node1" class="node">
<title>9c76d789&#45;36ff&#45;448a&#45;86bc&#45;da2b7ed272e2</title>
<path fill="#c3baae" stroke="#554836" d="M610,-196C610,-196 498,-196 498,-196 492,-196 486,-190 486,-184 486,-184 486,-172 486,-172 486,-166 492,-160 498,-160 498,-160 610,-160 610,-160 616,-160 622,-166 622,-172 622,-172 622,-184 622,-184 622,-190 616,-196 610,-196"/>
<text text-anchor="start" x="494" y="-179.7" font-family="Circular Std " font-size="14.00" fill="#554836">Find a full&#45;time job</text>
<text text-anchor="start" x="537.12" y="-165.7" font-family="Circular Std " font-size="14.00" fill="#554836"> </text>
<text text-anchor="start" x="540.88" y="-165.7" font-family="Circular Std " font-size="10.00" fill="#7d6a4f">ID: 155</text>
</g>
<!-- c50099cb&#45;f9e0&#45;42f9&#45;98b6&#45;e50848b18c70 -->
<g id="node2" class="node">
<title>c50099cb&#45;f9e0&#45;42f9&#45;98b6&#45;e50848b18c70</title>
<path fill="#171717" stroke="#171717" d="M152,-124C152,-124 28,-124 28,-124 22,-124 16,-118 16,-112 16,-112 16,-100 16,-100 16,-94 22,-88 28,-88 28,-88 152,-88 152,-88 158,-88 164,-94 164,-100 164,-100 164,-112 164,-112 164,-118 158,-124 152,-124"/>
<text text-anchor="start" x="24" y="-107.7" font-family="Circular Std " font-size="14.00" fill="#dedede">1 application per day</text>
<text text-anchor="start" x="73.12" y="-93.7" font-family="Circular Std " font-size="14.00" fill="#dedede"> </text>
<text text-anchor="start" x="76.88" y="-93.7" font-family="Circular Std " font-size="10.00" fill="#858585">ID: 170</text>
</g>
<!-- 9c76d789&#45;36ff&#45;448a&#45;86bc&#45;da2b7ed272e2&#45;&gt;c50099cb&#45;f9e0&#45;42f9&#45;98b6&#45;e50848b18c70 -->
<g id="edge1" class="edge">
<title>9c76d789&#45;36ff&#45;448a&#45;86bc&#45;da2b7ed272e2&#45;&gt;c50099cb&#45;f9e0&#45;42f9&#45;98b6&#45;e50848b18c70</title>
<g id="a_edge1"><a xlink:title="&lt;1 application per day&lt;BR /&gt; &lt;FONT POINT&#45;SIZE=&#39;10&#39; COLOR=&#39;#858585&#39;&gt;ID: 170&lt;/FONT&gt;&gt; depends on &lt;Find a full&#45;time job&lt;BR /&gt; &lt;FONT POINT&#45;SIZE=&#39;10&#39; COLOR=&#39;#7d6a4f&#39;&gt;ID: 155&lt;/FONT&gt;&gt;">
<path fill="none" stroke="#dedede" d="M475.06,-167.51C397.85,-157.88 277.04,-141.87 173,-124 170.1,-123.5 167.15,-122.98 164.17,-122.44"/>
<polygon fill="#dedede" stroke="#dedede" points="474.31,-171.07 484.66,-168.83 475.17,-164.12 474.31,-171.07"/>
</a>
</g>
</g>
<!-- 1b69c113&#45;22e2&#45;4b5f&#45;bc4a&#45;6087363cf6f3 -->
<g id="node3" class="node">
<title>1b69c113&#45;22e2&#45;4b5f&#45;bc4a&#45;6087363cf6f3</title>
<path fill="#171717" stroke="#171717" d="M416.12,-124C416.12,-124 193.88,-124 193.88,-124 187.88,-124 181.88,-118 181.88,-112 181.88,-112 181.88,-100 181.88,-100 181.88,-94 187.88,-88 193.88,-88 193.88,-88 416.12,-88 416.12,-88 422.12,-88 428.12,-94 428.12,-100 428.12,-100 428.12,-112 428.12,-112 428.12,-118 422.12,-124 416.12,-124"/>
<text text-anchor="start" x="189.88" y="-107.7" font-family="Circular Std " font-size="14.00" fill="#dedede">Do side projects to deck out resume</text>
<text text-anchor="start" x="288.5" y="-93.7" font-family="Circular Std " font-size="14.00" fill="#dedede"> </text>
<text text-anchor="start" x="292.25" y="-93.7" font-family="Circular Std " font-size="10.00" fill="#858585">ID: 172</text>
</g>
<!-- 9c76d789&#45;36ff&#45;448a&#45;86bc&#45;da2b7ed272e2&#45;&gt;1b69c113&#45;22e2&#45;4b5f&#45;bc4a&#45;6087363cf6f3 -->
<g id="edge2" class="edge">
<title>9c76d789&#45;36ff&#45;448a&#45;86bc&#45;da2b7ed272e2&#45;&gt;1b69c113&#45;22e2&#45;4b5f&#45;bc4a&#45;6087363cf6f3</title>
<g id="a_edge2"><a xlink:title="&lt;Do side projects to deck out resume&lt;BR /&gt; &lt;FONT POINT&#45;SIZE=&#39;10&#39; COLOR=&#39;#858585&#39;&gt;ID: 172&lt;/FONT&gt;&gt; depends on &lt;Find a full&#45;time job&lt;BR /&gt; &lt;FONT POINT&#45;SIZE=&#39;10&#39; COLOR=&#39;#7d6a4f&#39;&gt;ID: 155&lt;/FONT&gt;&gt;">
<path fill="none" stroke="#dedede" d="M481.28,-156.56C444.97,-146.35 401.51,-134.13 366.83,-124.38"/>
<polygon fill="#dedede" stroke="#dedede" points="480.24,-160.18 490.81,-159.52 482.13,-153.44 480.24,-160.18"/>
</a>
</g>
</g>
<!-- 768f4324&#45;8325&#45;4b9c&#45;87db&#45;99e01fed264e -->
<g id="node6" class="node">
<title>768f4324&#45;8325&#45;4b9c&#45;87db&#45;99e01fed264e</title>
<path fill="#171717" stroke="#171717" d="M649.38,-124C649.38,-124 458.62,-124 458.62,-124 452.62,-124 446.62,-118 446.62,-112 446.62,-112 446.62,-100 446.62,-100 446.62,-94 452.62,-88 458.62,-88 458.62,-88 649.38,-88 649.38,-88 655.38,-88 661.38,-94 661.38,-100 661.38,-100 661.38,-112 661.38,-112 661.38,-118 655.38,-124 649.38,-124"/>
<text text-anchor="start" x="454.62" y="-107.7" font-family="Circular Std " font-size="14.00" fill="#dedede">Resume and cover letter review</text>
<text text-anchor="start" x="536.75" y="-93.7" font-family="Circular Std " font-size="14.00" fill="#dedede"> </text>
<text text-anchor="start" x="540.5" y="-93.7" font-family="Circular Std " font-size="10.00" fill="#858585">ID: 179</text>
</g>
<!-- 9c76d789&#45;36ff&#45;448a&#45;86bc&#45;da2b7ed272e2&#45;&gt;768f4324&#45;8325&#45;4b9c&#45;87db&#45;99e01fed264e -->
<g id="edge5" class="edge">
<title>9c76d789&#45;36ff&#45;448a&#45;86bc&#45;da2b7ed272e2&#45;&gt;768f4324&#45;8325&#45;4b9c&#45;87db&#45;99e01fed264e</title>
<g id="a_edge5"><a xlink:title="&lt;Resume and cover letter review&lt;BR /&gt; &lt;FONT POINT&#45;SIZE=&#39;10&#39; COLOR=&#39;#858585&#39;&gt;ID: 179&lt;/FONT&gt;&gt; depends on &lt;Find a full&#45;time job&lt;BR /&gt; &lt;FONT POINT&#45;SIZE=&#39;10&#39; COLOR=&#39;#7d6a4f&#39;&gt;ID: 155&lt;/FONT&gt;&gt;">
<path fill="none" stroke="#dedede" d="M554,-148.81C554,-140.44 554,-131.54 554,-124.1"/>
<polygon fill="#dedede" stroke="#dedede" points="550.5,-148.7 554,-158.7 557.5,-148.7 550.5,-148.7"/>
</a>
</g>
</g>
<!-- e84a2fe2&#45;1319&#45;48c5&#45;8f94&#45;3d68faff52fa -->
<g id="node8" class="node">
<title>e84a2fe2&#45;1319&#45;48c5&#45;8f94&#45;3d68faff52fa</title>
<path fill="#171717" stroke="#171717" d="M818.5,-124C818.5,-124 691.5,-124 691.5,-124 685.5,-124 679.5,-118 679.5,-112 679.5,-112 679.5,-100 679.5,-100 679.5,-94 685.5,-88 691.5,-88 691.5,-88 818.5,-88 818.5,-88 824.5,-88 830.5,-94 830.5,-100 830.5,-100 830.5,-112 830.5,-112 830.5,-118 824.5,-124 818.5,-124"/>
<text text-anchor="start" x="687.5" y="-107.7" font-family="Circular Std " font-size="14.00" fill="#dedede">Launch new portfolio</text>
<text text-anchor="start" x="737.75" y="-93.7" font-family="Circular Std " font-size="14.00" fill="#dedede"> </text>
<text text-anchor="start" x="741.5" y="-93.7" font-family="Circular Std " font-size="10.00" fill="#858585">ID: 180</text>
</g>
<!-- 9c76d789&#45;36ff&#45;448a&#45;86bc&#45;da2b7ed272e2&#45;&gt;e84a2fe2&#45;1319&#45;48c5&#45;8f94&#45;3d68faff52fa -->
<g id="edge7" class="edge">
<title>9c76d789&#45;36ff&#45;448a&#45;86bc&#45;da2b7ed272e2&#45;&gt;e84a2fe2&#45;1319&#45;48c5&#45;8f94&#45;3d68faff52fa</title>
<g id="a_edge7"><a xlink:title="&lt;Launch new portfolio&lt;BR /&gt; &lt;FONT POINT&#45;SIZE=&#39;10&#39; COLOR=&#39;#858585&#39;&gt;ID: 180&lt;/FONT&gt;&gt; depends on &lt;Find a full&#45;time job&lt;BR /&gt; &lt;FONT POINT&#45;SIZE=&#39;10&#39; COLOR=&#39;#7d6a4f&#39;&gt;ID: 155&lt;/FONT&gt;&gt;">
<path fill="none" stroke="#dedede" d="M614.22,-156.03C643.21,-145.93 677.57,-133.96 705.09,-124.38"/>
<polygon fill="#dedede" stroke="#dedede" points="613.49,-152.92 605.2,-159.52 615.8,-159.53 613.49,-152.92"/>
</a>
</g>
</g>
<!-- 07012653&#45;57c3&#45;4560&#45;8413&#45;6d05a24863bd -->
<g id="node9" class="node">
<title>07012653&#45;57c3&#45;4560&#45;8413&#45;6d05a24863bd</title>
<path fill="#171717" stroke="#749175" d="M963.12,-124C963.12,-124 860.88,-124 860.88,-124 854.88,-124 848.88,-118 848.88,-112 848.88,-112 848.88,-100 848.88,-100 848.88,-94 854.88,-88 860.88,-88 860.88,-88 963.12,-88 963.12,-88 969.12,-88 975.12,-94 975.12,-100 975.12,-100 975.12,-112 975.12,-112 975.12,-118 969.12,-124 963.12,-124"/>
<text text-anchor="start" x="856.88" y="-107.7" font-family="Circular Std " font-size="14.00" fill="#749175">Graduate college</text>
<text text-anchor="start" x="899.25" y="-93.7" font-family="Circular Std " font-size="14.00" fill="#749175"> </text>
<text text-anchor="start" x="903" y="-93.7" font-family="Circular Std " font-size="10.00" fill="#858585">ID: 0</text>
</g>
<!-- 9c76d789&#45;36ff&#45;448a&#45;86bc&#45;da2b7ed272e2&#45;&gt;07012653&#45;57c3&#45;4560&#45;8413&#45;6d05a24863bd -->
<g id="edge8" class="edge">
<title>9c76d789&#45;36ff&#45;448a&#45;86bc&#45;da2b7ed272e2&#45;&gt;07012653&#45;57c3&#45;4560&#45;8413&#45;6d05a24863bd</title>
<g id="a_edge8"><a xlink:title="&lt;Graduate college&lt;BR /&gt; &lt;FONT POINT&#45;SIZE=&#39;10&#39; COLOR=&#39;#858585&#39;&gt;ID: 0&lt;/FONT&gt;&gt; depends on &lt;Find a full&#45;time job&lt;BR /&gt; &lt;FONT POINT&#45;SIZE=&#39;10&#39; COLOR=&#39;#7d6a4f&#39;&gt;ID: 155&lt;/FONT&gt;&gt;">
<path fill="none" stroke="#dedede" d="M632.85,-163.45C690.4,-153.3 770.22,-138.69 840,-124 842.76,-123.42 845.59,-122.81 848.43,-122.19"/>
<polygon fill="#dedede" stroke="#dedede" points="632.62,-160.11 623.37,-165.29 633.83,-167.01 632.62,-160.11"/>
</a>
</g>
</g>
<!-- ff6ab91a&#45;8445&#45;4b3c&#45;b27f&#45;def7aeee3035 -->
<g id="node4" class="node">
<title>ff6ab91a&#45;8445&#45;4b3c&#45;b27f&#45;def7aeee3035</title>
<path fill="#171717" stroke="#171717" d="M298.25,-52C298.25,-52 31.75,-52 31.75,-52 25.75,-52 19.75,-46 19.75,-40 19.75,-40 19.75,-28 19.75,-28 19.75,-22 25.75,-16 31.75,-16 31.75,-16 298.25,-16 298.25,-16 304.25,-16 310.25,-22 310.25,-28 310.25,-28 310.25,-40 310.25,-40 310.25,-46 304.25,-52 298.25,-52"/>
<text text-anchor="start" x="27.75" y="-35.7" font-family="Circular Std " font-size="14.00" fill="#dedede">Finish autonomous flying navigation course</text>
<text text-anchor="start" x="148.5" y="-21.7" font-family="Circular Std " font-size="14.00" fill="#dedede"> </text>
<text text-anchor="start" x="152.25" y="-21.7" font-family="Circular Std " font-size="10.00" fill="#858585">ID: 173</text>
</g>
<!-- 1b69c113&#45;22e2&#45;4b5f&#45;bc4a&#45;6087363cf6f3&#45;&gt;ff6ab91a&#45;8445&#45;4b3c&#45;b27f&#45;def7aeee3035 -->
<g id="edge3" class="edge">
<title>1b69c113&#45;22e2&#45;4b5f&#45;bc4a&#45;6087363cf6f3&#45;&gt;ff6ab91a&#45;8445&#45;4b3c&#45;b27f&#45;def7aeee3035</title>
<g id="a_edge3"><a xlink:title="&lt;Finish autonomous flying navigation course&lt;BR /&gt; &lt;FONT POINT&#45;SIZE=&#39;10&#39; COLOR=&#39;#858585&#39;&gt;ID: 173&lt;/FONT&gt;&gt; depends on &lt;Do side projects to deck out resume&lt;BR /&gt; &lt;FONT POINT&#45;SIZE=&#39;10&#39; COLOR=&#39;#858585&#39;&gt;ID: 172&lt;/FONT&gt;&gt;">
<path fill="none" stroke="#dedede" d="M260.35,-82.68C240.66,-72.83 217.88,-61.44 199.52,-52.26"/>
<polygon fill="#dedede" stroke="#dedede" points="258.52,-86.17 269.03,-87.52 261.65,-79.91 258.52,-86.17"/>
</a>
</g>
</g>
<!-- b04dedf9&#45;6c5a&#45;4a7e&#45;bd60&#45;b94a28f578f2 -->
<g id="node7" class="node">
<title>b04dedf9&#45;6c5a&#45;4a7e&#45;bd60&#45;b94a28f578f2</title>
<path fill="#171717" stroke="#171717" d="M417.38,-52C417.38,-52 340.62,-52 340.62,-52 334.62,-52 328.62,-46 328.62,-40 328.62,-40 328.62,-28 328.62,-28 328.62,-22 334.62,-16 340.62,-16 340.62,-16 417.38,-16 417.38,-16 423.38,-16 429.38,-22 429.38,-28 429.38,-28 429.38,-40 429.38,-40 429.38,-46 423.38,-52 417.38,-52"/>
<text text-anchor="start" x="336.62" y="-35.7" font-family="Circular Std " font-size="14.00" fill="#dedede">Finish Amphy</text>
<text text-anchor="start" x="362.5" y="-21.7" font-family="Circular Std " font-size="14.00" fill="#dedede"> </text>
<text text-anchor="start" x="366.25" y="-21.7" font-family="Circular Std " font-size="10.00" fill="#858585">ID: 175</text>
</g>
<!-- 1b69c113&#45;22e2&#45;4b5f&#45;bc4a&#45;6087363cf6f3&#45;&gt;b04dedf9&#45;6c5a&#45;4a7e&#45;bd60&#45;b94a28f578f2 -->
<g id="edge6" class="edge">
<title>1b69c113&#45;22e2&#45;4b5f&#45;bc4a&#45;6087363cf6f3&#45;&gt;b04dedf9&#45;6c5a&#45;4a7e&#45;bd60&#45;b94a28f578f2</title>
<g id="a_edge6"><a xlink:title="&lt;Finish Amphy&lt;BR /&gt; &lt;FONT POINT&#45;SIZE=&#39;10&#39; COLOR=&#39;#858585&#39;&gt;ID: 175&lt;/FONT&gt;&gt; depends on &lt;Do side projects to deck out resume&lt;BR /&gt; &lt;FONT POINT&#45;SIZE=&#39;10&#39; COLOR=&#39;#858585&#39;&gt;ID: 172&lt;/FONT&gt;&gt;">
<path fill="none" stroke="#dedede" d="M331.16,-80.26C340.91,-71.03 351.76,-60.77 360.66,-52.35"/>
<polygon fill="#dedede" stroke="#dedede" points="329.15,-77.28 324.29,-86.7 333.96,-82.37 329.15,-77.28"/>
</a>
</g>
</g>
<!-- 92e35958&#45;387d&#45;4d53&#45;b09d&#45;92ea9c9e2a13 -->
<g id="node5" class="node">
<title>92e35958&#45;387d&#45;4d53&#45;b09d&#45;92ea9c9e2a13</title>
<path fill="#171717" stroke="#171717" d="M644.5,-52C644.5,-52 463.5,-52 463.5,-52 457.5,-52 451.5,-46 451.5,-40 451.5,-40 451.5,-28 451.5,-28 451.5,-22 457.5,-16 463.5,-16 463.5,-16 644.5,-16 644.5,-16 650.5,-16 656.5,-22 656.5,-28 656.5,-28 656.5,-40 656.5,-40 656.5,-46 650.5,-52 644.5,-52"/>
<text text-anchor="start" x="459.5" y="-35.7" font-family="Circular Std " font-size="14.00" fill="#dedede">Write resume and cover letter</text>
<text text-anchor="start" x="537.12" y="-21.7" font-family="Circular Std " font-size="14.00" fill="#dedede"> </text>
<text text-anchor="start" x="540.88" y="-21.7" font-family="Circular Std " font-size="10.00" fill="#858585">ID: 174</text>
</g>
<!-- 768f4324&#45;8325&#45;4b9c&#45;87db&#45;99e01fed264e&#45;&gt;92e35958&#45;387d&#45;4d53&#45;b09d&#45;92ea9c9e2a13 -->
<g id="edge4" class="edge">
<title>768f4324&#45;8325&#45;4b9c&#45;87db&#45;99e01fed264e&#45;&gt;92e35958&#45;387d&#45;4d53&#45;b09d&#45;92ea9c9e2a13</title>
<g id="a_edge4"><a xlink:title="&lt;Write resume and cover letter&lt;BR /&gt; &lt;FONT POINT&#45;SIZE=&#39;10&#39; COLOR=&#39;#858585&#39;&gt;ID: 174&lt;/FONT&gt;&gt; depends on &lt;Resume and cover letter review&lt;BR /&gt; &lt;FONT POINT&#45;SIZE=&#39;10&#39; COLOR=&#39;#858585&#39;&gt;ID: 179&lt;/FONT&gt;&gt;">
<path fill="none" stroke="#dedede" d="M554,-76.81C554,-68.44 554,-59.54 554,-52.1"/>
<polygon fill="#dedede" stroke="#dedede" points="550.5,-76.7 554,-86.7 557.5,-76.7 550.5,-76.7"/>
</a>
</g>
</g>
</g>
</svg>
